<?xml version="1.0" encoding="UTF-8" standalone="no"?><svg xmlns="http://www.w3.org/2000/svg" xmlns:xlink="http://www.w3.org/1999/xlink" clip-rule="evenodd" fill="#000000" fill-rule="evenodd" height="387.9" image-rendering="optimizeQuality" preserveAspectRatio="xMidYMid meet" shape-rendering="geometricPrecision" text-rendering="geometricPrecision" version="1" viewBox="-0.1 -0.2 520.9 387.9" width="520.9" zoomAndPan="magnify"><g id="change1_1"><path d="M4.44 229.07c3.87,-12.46 3.87,-12.46 10.31,-26.76 -0.14,-0.74 -0.22,-1.47 -0.22,-2.2 -0.01,-0.74 0.01,-1.23 0.07,-1.72 -5.4,-8.49 -5.4,-8.49 -9.45,-16.22 -0.23,1.27 -0.57,2.02 -0.92,2.26 -0.53,-0.03 -0.87,-1.84 -0.75,-4.4 0.11,-2.31 0.63,-4.32 1.17,-4.54 0.51,0.04 0.87,1.6 0.79,3.89 9.09,-0.17 9.09,-0.17 22.81,-0.19 3.83,-21.89 3.83,-21.89 8.77,-43.45 -0.54,-0.86 -0.76,-2.36 -0.53,-3.98 0.42,-2.78 1.99,-5.45 3.5,-5.95 0.59,-0.05 1.12,0.12 1.54,0.49 22.4,-18.71 22.4,-18.71 50.15,-38.23 9.89,-12.23 9.89,-12.23 20.18,-24.26 4.22,-8.3 4.22,-8.3 8.47,-16.35 -0.55,-0.29 -0.85,-0.9 -0.57,-1.8 0.25,-1.23 1.58,-2.52 2.94,-2.85 1.37,-0.31 2.29,0.42 1.89,1.8 -0.24,1.25 -1.54,2.51 -2.91,2.82 -0.17,0.11 -0.2,0.08 -0.22,0.05 -4.36,8.18 -4.36,8.18 -8.54,16.49 -0.12,0.16 -0.12,0.16 -0.23,0.32 -10.25,11.96 -10.25,11.96 -19.99,23.96 13.44,14.38 13.44,14.38 29.35,30.6 4.21,-16.99 4.21,-16.99 8.72,-33.44 -2.24,-0.33 -3.54,-2.34 -3.24,-4.83 0.46,-3.11 3.3,-6.01 6.35,-6.5 1.52,-0.23 2.75,0.25 3.61,1.11 23.51,-18.98 47.57,-36.71 71.65,-52.95 -0.57,-0.65 -0.81,-1.46 -0.69,-2.35 0.18,-1.37 0.98,-2.6 2.45,-3.56 -6.19,-6.53 -6.19,-6.53 -11.96,-12.6 -0.19,0.08 -0.58,0.17 -0.98,0.23 -1.63,0.19 -2.74,-0.57 -2.46,-1.68 0.08,-1.04 1.48,-2.04 3.13,-2.25 1.65,-0.19 2.72,0.55 2.62,1.61 -0.26,0.55 -0.54,1.01 -1.05,1.41 5.73,6.07 5.73,6.07 11.86,12.61 0.86,-0.39 1.94,-0.68 2.88,-0.73 3.38,-0.23 6.05,1.59 5.85,4.1 -0.08,0.47 -0.17,0.92 -0.43,1.37 18.32,5.31 18.32,5.31 37.31,11.42 40.77,-2.21 40.77,-2.21 79.35,-2.11 -0.25,-2.53 2,-4.28 5.15,-3.88 3.34,0.5 6.15,2.87 6.66,5.5 0.13,0.54 0.09,1 -0.12,1.38 29.42,15.24 29.42,15.24 56.96,31.53 5.45,-5.16 5.45,-5.16 10.33,-10.11 -0.24,-9.73 -0.24,-9.73 -0.79,-18.83 -1.75,-1.07 -3.37,-2.93 -3.92,-4.64 -0.73,-2.19 0.59,-3.31 2.77,-2.66 2.33,0.84 4.79,3.24 5.54,5.41 0.71,2.18 -0.51,3.39 -2.71,2.73 -0.22,-0.09 -0.43,-0.19 -0.64,-0.3 0.51,8.5 0.51,8.5 0.81,17.62 15.48,-8.69 15.48,-8.69 27.31,-14.82 -0.13,-0.21 -0.24,-0.43 -0.34,-0.66 -0.38,-0.95 -0.11,-1.51 0.81,-1.01 0.91,0.5 1.89,1.59 2.28,2.54 0.38,0.95 0.1,1.5 -0.82,1 -0.29,-0.08 -0.68,-0.38 -1.18,-0.92 -11.63,6.17 -11.63,6.17 -26.89,14.81 15.79,3.78 15.79,3.78 29.66,7.83 -0.68,-2.35 0.21,-3.57 1.99,-2.83 1.79,0.74 3.87,3.3 4.6,5.64 0.84,2.53 0,3.92 -1.83,3.17 -1.73,-0.79 -3.57,-2.88 -4.48,-5.05 -14.54,-4.11 -14.54,-4.11 -31.2,-7.93 -16.05,15.8 -16.05,15.8 -35.77,35.26 0.69,0.9 1.26,2.09 1.5,3.35 33.38,6.76 33.38,6.76 61.69,14.2 -0.06,-2.47 1.25,-4.03 3.19,-3.58 2,0.43 4.01,2.98 4.61,5.72 12.5,3.89 23.29,7.51 32.67,11.44 -0.3,-2.4 0.41,-3.64 1.55,-3.27 0.8,0.23 1.7,1.45 2.37,3.01 3.28,-2.35 3.28,-2.35 6.19,-4.35 -0.07,-0.23 -0.13,-0.47 -0.19,-0.72 -0.32,-1.46 -0.13,-2.58 0.48,-2.27 0.69,0.56 1.49,2.14 1.81,3.61 0.32,1.47 0.14,2.58 -0.48,2.25 -0.44,-0.38 -0.88,-1.02 -1.19,-1.7 -2.92,1.98 -2.92,1.98 -6.21,4.31 0.15,0.46 0.27,0.93 0.42,1.64 0.47,2.62 -0.18,4.31 -1.42,3.93 -0.2,-0.19 -0.32,-0.16 -0.5,-0.35 -0.46,23.09 -0.46,23.09 -2.65,47.7 0.97,1.05 1.68,3.05 1.75,5.1 0.04,1.37 -0.18,2.75 -0.59,3.68 8.68,21.71 8.68,21.71 14.78,41.7 0.35,-0.69 0.73,-1.13 1.08,-1.09 0.56,-0.18 0.99,0.37 1.21,1.38 6.72,-13.06 6.72,-13.06 11.62,-25 -0.05,-0.51 -0.07,-1.28 -0.06,-1.79 0.02,-2.04 0.41,-3.83 0.87,-3.83 0.44,0 0.78,1.54 0.76,3.86 -0.03,2.05 -0.41,3.84 -0.85,3.83 -0.26,-0.01 -0.47,-0.53 -0.61,-1.3 -4.88,11.94 -4.88,11.94 -11.6,25.24 0.05,0.26 0.05,0.75 0.03,1.25 12.08,-6.15 12.08,-6.15 17.06,-11.16 0.11,-1.3 0.21,-2.08 0.28,-2.34 0.04,0 -0.01,1.05 -0.12,2.35 -0.11,1.31 -0.23,2.35 -0.26,2.35 -0.07,0.26 -0.04,-0.53 0.04,-1.58 -5,5.25 -5,5.25 -17.06,11.36 -0.06,0.49 -0.14,0.98 -0.25,1.46 7.57,12.47 7.57,12.47 10.81,21.85 0.27,-1 0.59,-2 0.77,-2.23 0.29,-0.47 0.18,0.84 -0.24,2.89 -0.44,2.05 -1.02,4.06 -1.31,4.52 -0.31,0.47 -0.2,-0.85 0.23,-2.89 0.11,-0.51 0.23,-1.02 0.29,-1.27 -3.19,-9.66 -3.19,-9.66 -10.81,-21.91 -0.45,1.42 -1.09,2.56 -1.69,2.71 -0.56,0.16 -1,-0.41 -1.22,-1.43 -38.12,49.4 -38.12,49.4 -98.24,103.15 -0.06,0.5 0.01,0.86 -0.08,1.33 -0.69,2.75 -3.29,5.31 -6.02,5.93 -2.88,0.71 -4.66,-0.98 -3.99,-3.77 0.11,-0.45 0.25,-0.88 0.41,-1.28 -18.66,-12.25 -40.21,-26.84 -64.27,-43.79 7.06,31 7.06,31 12.73,58.17 13.35,6.15 13.35,6.15 25.67,11.52 0.77,-0.66 1.66,-1.12 2.71,-1.35 1.91,-0.37 3.08,0.65 2.67,2.23 -0.26,1.47 -2.16,3.07 -4.08,3.46 -1.75,0.28 -3.03,-0.65 -2.77,-2.15 0.2,-0.46 0.24,-0.77 0.65,-1.24 -11.86,-5.06 -11.86,-5.06 -24.63,-10.88 1.59,15.46 1.59,15.46 2.84,29.15 1.49,-0.21 2.29,0.55 2.08,1.59 -0.22,1.06 -1.59,2.09 -3.08,2.33 -1.5,0.23 -2.47,-0.46 -2.25,-1.53 0.13,-0.76 0.92,-1.54 1.85,-1.97 -1.23,-13.87 -1.23,-13.87 -2.83,-29.55 -16.54,13.23 -16.54,13.23 -32.74,25.34 0.3,0.42 0.43,0.93 0.38,1.49 -0.03,1.46 -1.89,2.8 -4.05,2.97 -2.14,0.16 -3.76,-0.92 -3.68,-2.4 0.25,-1.55 2.08,-2.9 4.18,-3.04 0.95,-0.09 1.57,0.07 2.22,0.33 16.61,-12.43 16.61,-12.43 33.44,-25.96 -5.93,-27.73 -5.93,-27.73 -13.26,-59.47 -18.93,4.4 -18.93,4.4 -38.21,8.55 -0.02,0.38 0.07,0.73 0.06,1.11 -0.21,5.22 -4.84,9.47 -10.63,9.6 -4.19,0.06 -7.71,-2.15 -9.34,-5.39 -30.38,9.56 -30.38,9.56 -59.59,17.85 0.13,0.42 0.26,0.87 0.24,1.3 0.29,3.22 -2.49,5.58 -6.06,5.36 -3.62,-0.26 -6.64,-2.97 -6.9,-6.13 -0.21,-1.86 0.59,-3.46 2.02,-4.43 -29.96,-43.75 -29.96,-43.75 -58.31,-90.23 -0.15,0.04 -0.31,0.09 -0.5,0.01 -2.13,-0.03 -4.05,-1.36 -5.19,-3.34 -16.1,15.48 -16.1,15.48 -30.58,29.83 0.6,1.02 1.05,2.3 1.15,3.54 0.3,3.38 -1.73,5.8 -4.47,5.51 -1.74,-0.19 -3.42,-1.58 -4.41,-3.29 -21.62,10.95 -21.62,10.95 -38.83,19.72 0.24,0.62 0.34,1.06 0.49,1.72 0.5,2.7 -0.47,4.62 -2.3,3.98 -1.7,-0.47 -3.54,-3.13 -4.17,-6.07 -0.4,-2.05 0.07,-3.45 0.96,-4.05 -6.17,-18.51 -11.55,-37.27 -16.09,-56.16 -9.53,-10.41 -9.53,-10.41 -17.29,-19.78 -0.3,1.22 -0.84,2.21 -1.48,2 0.33,20.77 0.33,20.77 1.76,40.7 0.81,0.59 1.66,2.66 2.04,5.1 0.36,2.44 -0.06,4.31 -1.05,3.8 1.47,10.14 1.47,10.14 3.16,19.8 0.83,0.77 1.81,2.81 2.34,5 0.6,2.44 0.3,3.88 -0.69,3.18 -0.88,-0.48 -2.13,-2.97 -2.67,-5.19 -0.6,-2.46 -0.31,-3.87 0.58,-3.37 -1.7,-9.67 -1.7,-9.67 -3.11,-19.58 -0.83,-0.82 -1.67,-2.92 -2.02,-5.14 -0.04,-0.25 -0.07,-0.5 -0.1,-0.74 -6.53,-7.66 -6.53,-7.66 -11.51,-14.85 0.07,1.55 -0.12,2.36 -0.46,2.16 -0.23,-0.23 -0.46,-0.72 -0.69,-1.47 -0.52,11.17 -0.52,11.17 0.49,21.11 0.13,0.51 0.31,1.28 0.49,2.04 0.43,1.79 0.71,3.07 0.56,2.56 0,0 -0.13,-0.5 -0.24,-0.75l0 0c-0.45,-1.77 -0.88,-3.56 -1.29,-5.35l0 0c-0.13,-0.78 -0.18,-1.03 -0.11,-0.78 0.08,0.25 0.21,0.76 0.4,1.52 -1.01,-9.94 -1.01,-9.94 -0.5,-21.1 -0.17,-0.76 -0.31,-1.52 -0.43,-2.55 -0.03,-0.26 -0.03,-0.26 -0.05,-0.52 -1.08,-1.94 -1.08,-1.94 -2.03,-3.92 0.06,1.3 -0.02,2.1 -0.25,1.87 -0.26,-0.23 -0.63,-2.02 -0.85,-4.1 -0.23,-2.34 -0.19,-3.92 0.08,-3.68 0.28,0.23 0.67,2.03 0.89,4.36 0.03,0.25 0.03,0.25 0.05,0.51 0.95,1.98 0.95,1.98 2.03,3.93 -0.03,-1.3 0.11,-2.36 0.46,-2.14 0.26,0.23 0.55,0.97 0.78,1.72zm48.05 49.79c0.04,-0.02 0.17,0.17 0.21,0.15 -1.08,-29.38 -1.08,-29.38 -0.12,-61.14 -2.28,-1.03 -4.04,-4.68 -4.17,-8.7 -0.04,-1.48 0.14,-2.76 0.48,-3.83 -10.94,-12.6 -10.94,-12.6 -19.97,-24.02 8.49,48.37 8.49,48.37 23.01,97.52 0.16,-0.07 0.4,0.08 0.56,0.02zm1 0.55c0.84,0.62 1.59,1.5 2.22,2.68 17.17,-8.85 17.17,-8.85 38.72,-19.97 -0.18,-0.5 -0.35,-1.2 -0.43,-1.94 -0.09,-1.11 0.03,-2.29 0.4,-3.18 -19.64,-21.04 -19.64,-21.04 -36.58,-41.34 -0.94,1.74 -2.33,2.71 -3.88,2.68 -0.19,-0.19 -0.36,-0.17 -0.52,-0.15 -1.02,31.68 -1.02,31.68 0.07,61.22zm-36.92 -31.92c0.01,-1.53 0.45,-2.38 1.12,-2.26 -1.4,-19.71 -1.4,-19.71 -1.72,-40.28 -0.38,-0.23 -0.72,-0.95 -0.97,-1.67 -6.46,14.32 -6.46,14.32 -10.34,26.79 0.11,0.51 0.24,1.27 0.33,2.04 0.03,0.25 0.05,0.51 0.04,0.51 4.99,7.21 4.99,7.21 11.54,14.87zm-0.33 -52.57c0.54,0 1.04,0.77 1.39,1.98 4.58,-8.14 4.58,-8.14 9.91,-16.37 -13.29,-0.1 -13.29,-0.1 -22.16,-0.13 -0.02,0.25 -0.04,0.51 -0.08,0.76 4.06,7.74 4.06,7.74 9.47,16.25 0.31,-1.47 0.84,-2.49 1.47,-2.49zm1.65 2.95c0.14,0.72 0.22,1.44 0.23,2.17 0.01,0.72 -0.02,1.2 -0.08,1.69 7.54,9.18 7.54,9.18 16.73,19.21 -3.8,-20.24 -3.8,-20.24 -6.51,-40.13 -5.59,8.67 -5.59,8.67 -10.37,17.06zm465.98 -23.04c0.18,-0.01 0.38,0.19 0.54,0.18 2.19,-24.79 2.19,-24.79 2.68,-47.87 -0.87,-0.97 -1.69,-2.7 -2.1,-4.56 -14.52,-5.48 -14.52,-5.48 -32.62,-11.1 0.13,2.46 -1.06,4.09 -2.85,3.94 1.91,26.15 2.56,53.73 1.79,81.8 1.9,0.41 3.48,2.19 4.35,4.56 14.02,-10.26 14.02,-10.26 25.8,-19.81 -0.11,-0.66 -0.17,-1.1 -0.19,-1.77 -0.12,-3.11 1.06,-5.45 2.6,-5.37zm1.86 10.06c-0.37,0.47 -0.8,0.94 -1.29,0.96 -0.61,22.71 -0.61,22.71 -2.34,45.38 1.12,0.18 1.85,1.91 1.87,4 8.64,-2.78 8.64,-2.78 15.86,-5.32 0.14,-1.21 0.42,-2.39 0.78,-3.33 -6.16,-19.75 -6.16,-19.75 -14.88,-41.69zm-1.95 0.77c-0.81,-0.19 -1.54,-1.28 -2,-2.59 -11.75,9.71 -11.75,9.71 -25.74,19.9 0.22,1 0.33,2.19 0.32,3.17 -0.06,2.57 -0.8,4.88 -1.96,6.56 7.12,13.96 7.12,13.96 13.27,26.97 5.49,-1.28 5.49,-1.28 10.64,-2.74 0.3,-2.66 1.66,-5.14 3.11,-5.58 1.75,-22.83 1.75,-22.83 2.36,-45.69zm16.04 46.46c-0.06,-0.26 -0.06,-0.75 -0.04,-1.24 -7.24,2.75 -7.24,2.75 -15.9,5.72 -0.3,2.5 -1.64,5.02 -3.03,5.42 -1.52,10.82 -1.52,10.82 -3.23,21.24 12.25,-15.96 12.25,-15.96 22.2,-31.14zm-102.07 101.6c1.15,-0.24 1.99,0.04 2.72,0.48 36.45,-46.08 36.45,-46.08 65.96,-92.84 -31.11,6.99 -31.11,6.99 -70.69,13.64 -0.37,4.27 -3.04,7.97 -6.51,9.5 4.65,37.27 4.65,37.27 6.93,69.83 0.54,-0.28 0.98,-0.39 1.59,-0.61zm3.38 1.13c0.13,0.13 0.26,0.26 0.25,0.53 42.21,-35.65 42.21,-35.65 75.19,-70.78 -4.2,-11.07 -4.2,-11.07 -9.26,-23.04 -29.57,46.99 -29.57,46.99 -66.18,93.29zm-8.39 2.39c0.56,-0.82 1.39,-1.65 2.21,-2.2 -2.41,-32.59 -2.41,-32.59 -7.13,-69.97 -0.44,0.09 -0.91,0.17 -1.4,0.23 -3.06,0.26 -5.61,-1.34 -7.09,-3.75 -25.05,15.71 -25.05,15.71 -51.42,31.26 35.5,24.91 35.5,24.91 64.83,44.43zm87.44 -95.13c-1.13,-0.24 -1.92,-1.78 -1.96,-3.83 -4.85,1.27 -4.85,1.27 -10.03,2.6 4.82,11.45 4.82,11.45 8.81,22.18 1.71,-10.38 1.71,-10.38 3.18,-20.95zm-31.61 -126.96c-0.7,-0.37 -1.4,-0.97 -1.97,-1.61 -12.65,17.3 -12.65,17.3 -28.06,36.55 1.19,1.73 1.97,3.93 2.11,6.29 0.11,2.36 -0.49,4.52 -1.6,6.09 14.45,19.06 14.45,19.06 27.25,36.95 1.11,-1.3 2.51,-2.22 4.02,-2.21 0.63,-42.11 0.63,-42.11 -1.75,-82.06zm-2.74 -2.61c-0.65,-1.05 -1.12,-2.18 -1.29,-3.22 -28.31,-7.32 -28.31,-7.32 -61.78,-14.09 -0.09,1.49 -0.79,2.65 -1.79,3.45 14.45,23.96 14.45,23.96 27.9,48.12 1.03,-0.5 2.21,-0.72 3.46,-0.62 2.01,0.21 3.84,1.18 5.31,2.8 15.4,-19.39 15.4,-19.39 28.19,-36.44zm-307.64 -36.44c0.48,0.72 0.59,1.76 0.47,2.83 -0.07,0.62 -0.32,1.31 -0.5,1.82 21.66,8.24 21.66,8.24 45.41,17.75 1.81,-2.91 5.17,-5.05 8.88,-5.28 0.29,0 0.58,0.01 0.88,0.02 9.6,-37.08 9.6,-37.08 19.1,-69.23 -0.97,-0.15 -1.8,-0.49 -2.5,-0.96 -36.33,25.04 -36.33,25.04 -71.74,53.05zm-0.8 5.99c-1.24,1.8 -3.09,3.05 -5.08,3.32 -0.17,0.07 -0.17,0.07 -0.24,0.01 -4.6,16.7 -4.6,16.7 -8.84,33.91 28.17,-7.68 28.17,-7.68 58.66,-15.02 0.03,-0.33 0.07,-0.66 0.02,-0.91 0.08,-1.21 0.38,-2.37 0.9,-3.48 -23.82,-9.48 -23.82,-9.48 -45.42,-17.83zm82.29 -60.64c-0.43,0.51 -0.88,0.96 -1.51,1.35 24.11,32.28 24.11,32.28 51.28,71.13 1.01,-0.8 2.22,-1.4 3.52,-1.77 -8.38,-31.42 -8.38,-31.42 -16.1,-59.29 -18.92,-6.11 -18.92,-6.11 -37.19,-11.42zm-2.81 2.02c-0.83,0.34 -1.86,0.59 -2.76,0.64 -0.01,-0.02 -0.18,0 -0.36,0.02 -9.32,32.16 -9.32,32.16 -18.87,69.28 4.13,0.8 7.08,4.17 7.16,8.42 31.52,-0.2 31.52,-0.2 63.7,0.34 -0.08,-0.25 -0.07,-0.5 -0.05,-0.75 -0.03,-2.46 0.91,-4.7 2.54,-6.4 -27.26,-39.07 -27.26,-39.07 -51.36,-71.55zm131.51 10.23c-0.37,0.67 -1.05,1.15 -1.85,1.46 14.19,24.99 14.19,24.99 28.22,52.36 0.5,-0.04 0.99,-0.07 1.57,0.05 1.32,0.08 2.7,0.78 3.79,1.75 13.27,-12.86 13.27,-12.86 24.93,-24.26 -27.41,-16.19 -27.41,-16.19 -56.66,-31.36zm-3.19 1.66c-0.45,0.07 -0.88,0.1 -1.45,0.02 -1.15,-0.13 -2.34,-0.58 -3.42,-1.23 -26.3,27.32 -26.3,27.32 -56.84,60.49 1.65,1.48 2.81,3.42 3.15,5.56 44.08,-4.47 44.08,-4.47 84.44,-7.17 0.03,-0.03 0.03,-0.03 -0.03,-0.18 -0.24,-2.27 0.8,-4.1 2.54,-4.89 -14.13,-27.51 -14.13,-27.51 -28.39,-52.6zm-6.05 -2.08c-0.69,-0.65 -1.3,-1.47 -1.68,-2.36 -38.59,-0.17 -38.59,-0.17 -78.96,2.04 7.72,27.69 7.72,27.69 16.09,58.88 0.54,-0.06 0.97,-0.1 1.5,-0.09 2.34,0.05 4.45,0.74 6.13,1.89 30.61,-33.1 30.61,-33.1 56.92,-60.36zm-297.25 93.85c0.19,0.78 0.31,1.53 0.17,2.67 14.79,-2.46 14.79,-2.46 32.64,-4.81 0.92,-4.33 3.97,-7.98 7.32,-8.64 0.29,-0.09 0.51,0.01 0.8,-0.07 3.96,-13.46 3.96,-13.46 8.16,-26.53 -27.16,19.2 -27.16,19.2 -49.09,37.38zm-0.07 4.02c0.01,0.01 -0.05,0.23 -0.11,0.44 10.35,3.71 10.35,3.71 22.6,7.89 5.09,-4.77 5.09,-4.77 10.42,-9.66 -0.29,-0.94 -0.35,-2.21 -0.24,-3.44 -17.84,2.24 -17.84,2.24 -32.67,4.77zm-0.55 1.73c-0.35,0.85 -0.83,1.66 -1.35,2.22 1.05,9.82 1.05,9.82 2.44,19.89 0.28,-0.18 0.53,-0.13 0.85,-0.29 1.41,-0.18 2.48,1.35 2.69,3.59 8.2,-8.61 8.2,-8.61 17.26,-17.66 -11.82,-4.19 -11.82,-4.19 -21.89,-7.75zm-2.06 2.97c-0.25,0.17 -0.53,0.34 -0.75,0.28 -0.35,0.14 -0.64,0.06 -0.92,-0.01 -4.83,21.05 -4.83,21.05 -8.59,42.42 5.41,-6.87 5.41,-6.87 11.43,-14.02 -0.49,-0.97 -0.73,-2.35 -0.62,-3.91 0.15,-2 0.91,-3.9 1.87,-4.86 -1.33,-10.29 -1.33,-10.29 -2.42,-19.9zm6.68 23.98c0,0 0,0 0.01,0 -0.16,2.16 -0.93,4.02 -1.93,4.97 3.45,17.85 3.45,17.85 7.83,36.24 0.52,-0.22 1.07,-0.44 1.65,-0.46 0.6,0.19 1.17,0.18 1.72,0.57 7.92,-28.25 7.92,-28.25 17.8,-57.19 -4.47,-1.43 -4.47,-1.43 -8.69,-3.02 -9.64,9.5 -9.64,9.5 -18.39,18.89zm-2.67 5.75c-0.28,0.18 -0.54,0.14 -0.85,0.32 -0.53,-0.07 -1.04,-0.14 -1.43,-0.64 -6.28,7.35 -6.28,7.35 -11.92,14.44 9.15,11.71 9.15,11.71 20.28,24.35 0.44,-1.06 1.04,-1.92 1.75,-2.36 -4.36,-18.65 -4.36,-18.65 -7.83,-36.11zm55.15 89.02c1.3,0.07 2.57,0.86 3.6,2.09 14.55,-14.54 14.55,-14.54 30.78,-30.15 -0.19,-0.63 -0.32,-1.27 -0.35,-1.8 -40.72,-6.88 -40.72,-6.88 -73.31,-13.45 -0.11,1.22 -0.36,2.46 -0.76,3.31 16.99,20.27 16.99,20.27 36.72,41.41 0.78,-1.03 1.98,-1.47 3.32,-1.41zm39.86 -36.9c3.14,0.15 5.77,2.78 6.21,6.2 16.57,0.54 16.57,0.54 33.84,0.93 -15.78,-14.9 -15.78,-14.9 -30.86,-29.59 -0.71,0.25 -1.44,0.36 -2.2,0.36 -0.6,0 -1.18,0.01 -1.75,-0.23 -2.69,11.2 -2.69,11.2 -5.24,22.33zm6.27 7.9c-0.23,2.54 -1.75,4.75 -3.93,5.4 28.3,46.34 28.3,46.34 58.08,89.9 0.9,-0.26 1.75,-0.43 2.78,-0.35 2.51,0.12 4.87,1.59 6.14,3.6 29.23,-8.35 29.23,-8.35 59.58,-17.94 -0.28,-0.79 -0.33,-1.63 -0.39,-2.49 0.06,-0.64 0.13,-1.27 0.19,-1.87 -43.5,-36.46 -43.5,-36.46 -86.83,-75.33 -18.2,-0.43 -18.2,-0.43 -35.62,-0.92zm-12.05 -2.47c0.35,-2.59 2.02,-4.61 4.24,-5.27 2.6,-11.39 2.6,-11.39 5.36,-22.98 -2.74,-1.09 -4.86,-3.68 -5.65,-6.8 -43.23,10.98 -43.23,10.98 -77.32,20.59 0.03,0.2 0.06,0.6 0.07,1 0.01,0.21 0.01,0.21 0,0.21 32.58,6.44 32.58,6.44 73.3,13.25zm285.8 -59.51c-1.3,1.24 -3.01,2.06 -4.94,1.95 -3.07,-0.19 -5.84,-2.42 -7.32,-5.49 -23.89,11.39 -23.89,11.39 -50.27,23.62 48.7,10.88 48.7,10.88 88.44,20.29 0.28,-1.28 0.76,-2.56 1.4,-3.66 -12.85,-17.86 -12.85,-17.86 -27.31,-36.71zm-12.87 -5.1c-0.33,-1 -0.52,-2.04 -0.56,-3.12 -0.19,-3.4 1.04,-6.17 3.03,-7.78 -13.55,-24.39 -13.55,-24.39 -27.96,-48.28 -0.73,0.19 -1.44,0.37 -2.29,0.27 -2.73,-0.3 -5.25,-2.48 -6.15,-5.09 -40.48,2.73 -40.48,2.73 -84.66,7.25 0.01,2.66 -1.09,5.06 -2.93,6.81 23.66,24.32 46.98,49.32 69.44,74.46 27.35,-12.8 27.35,-12.8 52.08,-24.52zm48.25 55.28c-1.02,1.08 -2.26,1.73 -3.59,1.78 -2.13,0.15 -3.99,-1.37 -5.09,-3.73 -23.11,18.9 -23.11,18.9 -49.81,38.89 0.36,0.78 0.52,1.81 0.59,2.8 39.74,-6.68 39.74,-6.68 70.89,-13.44 -6,-12.96 -6,-12.96 -12.99,-26.3zm-9.18 -3.11c-0.38,-1.33 -0.6,-2.64 -0.57,-4.12 0.01,-0.37 0.03,-0.74 0.06,-1.11 -40.6,-9.58 -40.6,-9.58 -90.45,-20.53 -9.52,16.13 -9.52,16.13 -19.37,32.56 2.48,1.92 4.05,5.02 4,8.49 -0.03,1.72 -0.47,3.38 -1.2,4.83 22.12,10.51 22.12,10.51 42.76,20.34 1.68,-3.03 4.7,-5.24 7.97,-5.4 2.98,-0.19 5.5,1.24 6.91,3.65 26.74,-19.95 26.74,-19.95 49.89,-38.71zm-65.67 49.46c-0.46,-1.17 -0.68,-2.5 -0.59,-3.96 0.09,-1.29 0.37,-2.49 0.81,-3.6 -20.74,-9.82 -20.74,-9.82 -42.97,-20.32 -1.9,2.65 -4.94,4.41 -8.38,4.53 -1.73,0.05 -3.32,-0.4 -4.74,-1.12 -19.64,30.72 -19.64,30.72 -39.37,60.12 1.81,1.22 3.13,2.97 3.78,5 19.6,-4.21 19.6,-4.21 38.93,-8.73 26.88,-15.8 26.88,-15.8 52.53,-31.92zm-101.44 33.83c1.83,-0.04 3.45,0.33 4.85,1.01 19.7,-29.43 19.7,-29.43 39.34,-60.19 -2.33,-1.74 -3.89,-4.49 -4.11,-7.63 -45.04,0.29 -90.7,0.1 -134.85,-0.55 42.43,37.95 42.43,37.95 84.9,73.62 1.57,-3.61 5.42,-6.21 9.87,-6.26zm-193.5 -177.67c2.46,0.69 4.16,3.31 3.92,7.07 15.69,-1.85 15.69,-1.85 32.93,-3.65 -15.47,-15.99 -15.47,-15.99 -28.68,-30.04 -4.25,13.21 -4.25,13.21 -8.17,26.62zm3.7 8.59c-0.25,1.5 -0.77,2.89 -1.52,4.19 13.19,12.99 13.19,12.99 28.18,27 3.44,-17.54 3.44,-17.54 7.33,-35.02 -17.75,1.76 -17.75,1.76 -33.99,3.83zm-2.34 5.47c-1.4,1.87 -3.27,3.2 -5.22,3.52 -0.75,0.15 -1.43,0.12 -2.05,-0.09 -1.81,4.66 -1.81,4.66 -3.54,9.16 17.29,5.97 17.29,5.97 37.03,12.7 -13.86,-13.23 -13.86,-13.23 -26.22,-25.29zm-8.13 2.94c-0.84,-0.49 -1.51,-1.34 -1.98,-2.33 -4.9,4.39 -4.9,4.39 -9.7,9.01 3.95,1.33 3.95,1.33 8.07,2.7 1.78,-4.7 1.78,-4.7 3.61,-9.38zm124.8 -29.89c-0.72,4.95 -5.24,9.04 -10.47,9.24 -3.26,0.16 -6.07,-1.21 -7.76,-3.47 -21.19,14.52 -21.19,14.52 -41.54,29.17 20.11,9.63 20.11,9.63 41.64,19.82 41.52,-26.42 41.52,-26.42 83.48,-51.57 -0.55,-0.88 -0.93,-1.84 -1.22,-2.86 -32.4,-0.54 -32.4,-0.54 -64.13,-0.33zm-19.02 4.52c-0.31,-0.7 -0.6,-1.39 -0.78,-2.14 -30.25,7.2 -30.25,7.2 -58.34,14.88 8.25,8.3 8.25,8.3 17.03,16.88 20.57,-14.83 20.57,-14.83 42.09,-29.62zm99.8 1.68c-1.01,0.69 -2.13,1.22 -3.37,1.53 23.07,51.79 23.07,51.79 45.37,104.95 1.06,-0.39 2.18,-0.63 3.35,-0.65 1.7,0.04 3.33,0.43 4.75,1.16 9.85,-16.4 9.85,-16.4 19.37,-32.47 -34.11,-37.72 -34.11,-37.72 -69.47,-74.52zm-5.03 1.83c-0.44,0.03 -0.8,0.06 -1.23,0.05 -3.29,-0.04 -6.19,-1.43 -8.13,-3.59 -41.61,24.92 -41.61,24.92 -82.78,51.04 65.91,31.32 65.91,31.32 132.87,63.06 0.98,-2.25 2.68,-4.11 4.79,-5.26 -22.4,-53.31 -22.4,-53.31 -45.52,-105.3zm39.83 114.02c0.06,-0.63 0.19,-1.29 0.34,-1.87 -67.54,-32 -67.54,-32 -133.93,-63.59 -15.33,10.16 -15.33,10.16 -30.13,20.22 0.68,1.38 1.04,3.02 1.02,4.82 -0.03,4.21 -2.38,7.94 -5.7,9.53 15.47,15.04 15.47,15.04 31.64,30.26 67.82,0.86 67.82,0.86 136.76,0.63zm-172.03 -50.76c3.09,-0.01 5.85,1.5 7.54,4.1 14.34,-9.78 14.34,-9.78 29.17,-19.61 -21.47,-10.14 -21.47,-10.14 -41.54,-19.67 -12.69,8.99 -12.69,8.99 -24.87,18.05 11.08,10.05 11.08,10.05 22.85,20.61 1.71,-2.07 4.14,-3.36 6.85,-3.48zm-9.3 11.75c-0.04,-0.38 -0.06,-0.88 -0.06,-1.25 0.02,-2.11 0.61,-4.04 1.6,-5.78 -11.96,-10.63 -11.96,-10.63 -23.17,-20.94 -31,24.72 -31,24.72 -56.04,47.2 0.16,0.39 0.3,0.99 0.42,1.59 34.06,-9.71 34.06,-9.71 77.25,-20.82zm-80.14 15.28c0.77,0.58 1.45,1.57 1.98,2.76 24.64,-22.41 24.64,-22.41 55.07,-46.69 -20.93,-7.14 -20.93,-7.14 -39.17,-13.4 -9.9,28.79 -9.9,28.79 -17.88,57.33zm66.71 -80.04c-3.77,17.03 -3.77,17.03 -7.17,34.28 11.72,-8.75 11.72,-8.75 23.91,-17.44 -8.64,-8.55 -8.64,-8.55 -16.74,-16.84z" fill="#47969f" fill-rule="nonzero"/></g></svg>